<?xml version="1.0" encoding="UTF-8" standalone="no"?>
<!-- Created with Inkscape (http://www.inkscape.org/) -->

<svg
   xmlns:dc="http://purl.org/dc/elements/1.1/"
   xmlns:cc="http://creativecommons.org/ns#"
   xmlns:rdf="http://www.w3.org/1999/02/22-rdf-syntax-ns#"
   xmlns:svg="http://www.w3.org/2000/svg"
   xmlns="http://www.w3.org/2000/svg"
   xmlns:sodipodi="http://sodipodi.sourceforge.net/DTD/sodipodi-0.dtd"
   xmlns:inkscape="http://www.inkscape.org/namespaces/inkscape"
   width="1024"
   height="1024"
   viewBox="0 0 1024 1024"
   id="main"
   version="1.1"
   inkscape:version="0.91 r13725"
   sodipodi:docname="logo.svg"
   inkscape:export-xdpi="90"
   inkscape:export-ydpi="90">
  <title
     id="title4044">ArrowDL Logo</title>
  <defs
     id="defs4">
    <inkscape:path-effect
       effect="knot"
       id="path-effect6505"
       is_visible="true"
       interruption_width="3"
       prop_to_stroke_width="true"
       add_stroke_width="true"
       add_other_stroke_width="true"
       switcher_size="15"
       crossing_points_vector="" />
    <inkscape:path-effect
       effect="sketch"
       id="path-effect6503"
       is_visible="true"
       nbiter_approxstrokes="5"
       strokelength="100"
       strokelength_rdm="0.3;1"
       strokeoverlap="0.3"
       strokeoverlap_rdm="0.3;1"
       ends_tolerance="0.1;1"
       parallel_offset="5;1"
       tremble_size="5;1"
       tremble_frequency="1"
       nbtangents="5"
       tgt_places_rdmness="1;1"
       tgtscale="10"
       tgtlength="100"
       tgtlength_rdm="0.3;1" />
    <inkscape:path-effect
       effect="sketch"
       id="path-effect6501"
       is_visible="true"
       nbiter_approxstrokes="1"
       strokelength="100"
       strokelength_rdm="0.3;1"
       strokeoverlap="0.3"
       strokeoverlap_rdm="0.3;1"
       ends_tolerance="0.1;1"
       parallel_offset="5;1"
       tremble_size="5;1"
       tremble_frequency="1"
       nbtangents="5"
       tgt_places_rdmness="1;1"
       tgtscale="10"
       tgtlength="100"
       tgtlength_rdm="0.3;1" />
    <inkscape:path-effect
       effect="clone_original"
       id="path-effect6499"
       is_visible="true"
       linkedpath="" />
    <inkscape:path-effect
       effect="powerstroke"
       id="path-effect6497"
       is_visible="true"
       offset_points="0,35 | 3,35 | 6,35"
       sort_points="true"
       interpolator_type="Linear"
       interpolator_beta="0.1"
       start_linecap_type="round"
       linejoin_type="round"
       miter_limit="4"
       end_linecap_type="round" />
    <inkscape:path-effect
       effect="bend_path"
       id="path-effect6495"
       is_visible="true"
       bendpath="m 14.802527,532.36216 985.197473,0"
       prop_scale="1"
       scale_y_rel="false"
       vertical="false" />
    <inkscape:path-effect
       effect="envelope"
       id="path-effect6493"
       is_visible="true"
       yy="true"
       xx="true"
       bendpath1="m 14.802527,72.362162 985.197473,0"
       bendpath2="m 1000,72.362162 0,919.999998"
       bendpath3="m 14.802527,992.36216 985.197473,0"
       bendpath4="m 14.802527,72.362162 0,919.999998" />
    <inkscape:path-effect
       effect="construct_grid"
       id="path-effect6491"
       is_visible="true"
       nr_x="5"
       nr_y="5" />
    <inkscape:path-effect
       effect="gears"
       id="path-effect6489"
       is_visible="true"
       teeth="10"
       phi="5" />
    <inkscape:path-effect
       effect="rough_hatches"
       id="path-effect6487"
       is_visible="true"
       direction="507.40126,527.36216 , 246.29937,0"
       dist_rdm="75;1"
       growth="0"
       do_bend="true"
       bender="507.40126,532.36216 , 5,0"
       bottom_edge_variation="92;1"
       top_edge_variation="92;1"
       bottom_tgt_variation="0;1"
       top_tgt_variation="0;1"
       scale_bf="1"
       scale_bb="1"
       scale_tf="1"
       scale_tb="1"
       top_smth_variation="0;1"
       bottom_smth_variation="0;1"
       fat_output="true"
       stroke_width_top="1"
       stroke_width_bottom="1"
       front_thickness="1"
       back_thickness="0.25" />
    <inkscape:path-effect
       effect="curvestitching"
       id="path-effect6485"
       is_visible="true"
       count="5"
       startpoint_edge_variation="0;1"
       startpoint_spacing_variation="0;1"
       endpoint_edge_variation="0;1"
       endpoint_spacing_variation="0;1"
       strokepath="m 14.802527,532.36216 985.197473,0"
       prop_scale="1"
       scale_y_rel="false" />
    <inkscape:path-effect
       effect="ruler"
       id="path-effect6483"
       is_visible="true"
       unit="px"
       mark_distance="20"
       mark_length="14"
       minor_mark_length="7"
       major_mark_steps="5"
       shift="0"
       offset="0"
       mark_dir="left"
       border_marks="both" />
    <inkscape:path-effect
       effect="skeletal"
       id="path-effect6481"
       is_visible="true"
       pattern="M 0,0 1,0"
       copytype="single_stretched"
       prop_scale="1"
       scale_y_rel="false"
       spacing="0"
       normal_offset="0"
       tang_offset="0"
       prop_units="false"
       vertical_pattern="false"
       fuse_tolerance="0" />
    <inkscape:path-effect
       effect="curvestitching"
       id="path-effect6479"
       is_visible="true"
       count="5"
       startpoint_edge_variation="0;1"
       startpoint_spacing_variation="0;1"
       endpoint_edge_variation="0;1"
       endpoint_spacing_variation="0;1"
       strokepath="m 14.802527,532.36216 985.197473,0"
       prop_scale="1"
       scale_y_rel="false" />
    <inkscape:path-effect
       effect="vonkoch"
       id="path-effect6477"
       is_visible="true"
       ref_path="m 14.802527,532.36216 985.197473,0"
       generator="m 14.802527,992.36216 328.399153,0 m 328.39916,0 328.39916,0"
       similar_only="false"
       nbgenerations="1"
       drawall="true"
       maxComplexity="1000" />
    <inkscape:path-effect
       effect="sketch"
       id="path-effect6471"
       is_visible="true"
       nbiter_approxstrokes="5"
       strokelength="100"
       strokelength_rdm="0.3;1"
       strokeoverlap="0.3"
       strokeoverlap_rdm="0.3;1"
       ends_tolerance="0.1;1"
       parallel_offset="5;1"
       tremble_size="5;1"
       tremble_frequency="1"
       nbtangents="5"
       tgt_places_rdmness="1;1"
       tgtscale="10"
       tgtlength="100"
       tgtlength_rdm="0.3;1" />
  </defs>
  <sodipodi:namedview
     id="base"
     pagecolor="#ffffff"
     bordercolor="#666666"
     borderopacity="1.0"
     inkscape:pageopacity="0.0"
     inkscape:pageshadow="2"
     inkscape:zoom="0.35355339"
     inkscape:cx="352.54967"
     inkscape:cy="489.13812"
     inkscape:document-units="px"
     inkscape:current-layer="g4910"
     showgrid="true"
     inkscape:window-width="1280"
     inkscape:window-height="909"
     inkscape:window-x="1272"
     inkscape:window-y="-8"
     inkscape:window-maximized="1"
     units="px"
     objecttolerance="20"
     inkscape:snap-grids="true"
     inkscape:snap-bbox="false"
     inkscape:snap-path-clip="false"
     inkscape:snap-path-mask="false"
     guidetolerance="10000"
     inkscape:snap-perpendicular="true"
     inkscape:snap-tangential="true"
     showguides="true"
     inkscape:snap-page="false"
     gridtolerance="10">
    <inkscape:grid
       type="xygrid"
       id="grid4019"
       spacingx="20"
       spacingy="20"
       dotted="false"
       snapvisiblegridlinesonly="true"
       color="#3fbdff"
       opacity="0.1254902"
       empspacing="5"
       enabled="true"
       visible="false" />
  </sodipodi:namedview>
  <metadata
     id="metadata7">
    <rdf:RDF>
      <cc:Work
         rdf:about="">
        <dc:format>image/svg+xml</dc:format>
        <dc:type
           rdf:resource="http://purl.org/dc/dcmitype/StillImage" />
        <dc:title>ArrowDL Logo</dc:title>
        <dc:date>23/11/2019</dc:date>
        <dc:creator>
          <cc:Agent>
            <dc:title>Sébastien Vavassori</dc:title>
          </cc:Agent>
        </dc:creator>
        <dc:publisher>
          <cc:Agent>
            <dc:title></dc:title>
          </cc:Agent>
        </dc:publisher>
        <dc:rights>
          <cc:Agent>
            <dc:title>Copyright (c) 2019, Sébastien Vavassori. All Rights Reserved.</dc:title>
          </cc:Agent>
        </dc:rights>
      </cc:Work>
    </rdf:RDF>
  </metadata>
  <g
     inkscape:label="mask"
     inkscape:groupmode="layer"
     id="g4910"
     transform="translate(0,-28.362161)"
     style="display:inline">
    <path
       id="path4912"
       style="fill:#f8b124;fill-opacity:1;fill-rule:evenodd;stroke:none;stroke-width:10;stroke-linecap:butt;stroke-linejoin:miter;stroke-miterlimit:4;stroke-dasharray:none;stroke-opacity:1"
       d="m 256.89034,492.81762 c 33.31045,1.03676 67.6591,7.56118 97.44846,22.81475 36.53439,18.70735 66.70732,49.49427 93.43863,81.06086 45.24819,53.43288 77.83444,117.14592 110.13008,179.61217 14.05943,27.19373 36.1844,84.52868 36.1844,84.52868 L 468.1258,941.95599 c 174.41461,59.35751 317.1557,59.35751 503.86442,59.35751 -2.39886,-185.87784 0,-375.93081 -38.7588,-554.00329 l -75.57966,142.45798 c 0,0 -50.60294,-88.65798 -79.92065,-130.23034 -17.68258,-25.0738 -37.08065,-48.94447 -57.6731,-71.58514 -21.15819,-23.26268 -43.18676,-45.9359 -67.46268,-65.77267 -33.44224,-27.32692 -59.86026,-52.22357 -106.95192,-72.72815 -47.09167,-20.50457 -111.7013,-38.89058 -174.41461,-39.57166 -96.897,39.57166 -174.4146,118.71499 -190.51303,295.7909 0,0 50.70957,-13.64609 76.17457,-12.85351 z"
       inkscape:connector-curvature="0"
       sodipodi:nodetypes="aaaacccccaaazcca" />
    <path
       sodipodi:nodetypes="caacaac"
       inkscape:connector-curvature="0"
       d="m 780.23155,458.98285 c 0,0 17.00142,-73.26665 17.34406,-110.6018 0.45538,-49.61824 -5.32395,-100.21455 -20.34837,-147.40444 -12.55151,-39.42282 -57.16923,-109.811363 -57.16923,-109.811363 0,0 3.96707,54.744323 2.90691,82.111193 -1.55483,40.13625 -5.67661,80.35248 -13.56558,119.70428 -4.32382,21.56815 -18.41043,63.31466 -18.41043,63.31466"
       style="display:inline;fill:#38b768;fill-opacity:1;fill-rule:evenodd;stroke:none;stroke-width:10;stroke-linecap:butt;stroke-linejoin:miter;stroke-miterlimit:4;stroke-dasharray:none;stroke-opacity:1"
       id="path4932" />
    <path
       sodipodi:nodetypes="caaaaaaaccaaaaac"
       inkscape:connector-curvature="0"
       d="m 371.2288,209.88023 c -65.87357,-0.71539 -145.06843,22.80789 -204.85403,62.39568 -51.02205,33.78488 -92.940326,85.1198 -118.919684,141.25777 -23.995339,51.85076 -33.576233,112.32519 -28.971714,169.4792 5.129222,63.66696 22.927784,131.01959 62.05442,180.87063 34.985898,44.57534 88.688458,74.92698 142.507458,90.53474 51.55421,14.95096 107.91627,8.48966 160.78016,-0.50921 45.2722,-7.70656 89.33999,-24.21918 130.38107,-45.19706 15.88061,-8.11728 43.9427,-30.75959 43.9427,-30.75959 -51.26457,-93.21221 -111.34072,-182.24845 -111.34072,-182.24845 0,0 -69.23304,25.68266 -104.74615,24.08247 C 305.34272,618.13186 267.39934,606.01406 237.41355,584.31253 211.57843,565.61494 189.00492,538.35178 179.311,507.57212 169.04718,474.9829 173.72526,437.86177 182.91611,404.9404 196.61795,355.86087 221.51488,307.60446 257.36056,272.03587 288.2254,241.4096 371.2288,209.88023 371.2288,209.88023"
       style="display:inline;fill:#38b768;fill-opacity:1;fill-rule:evenodd;stroke:none;stroke-width:10;stroke-linecap:butt;stroke-linejoin:miter;stroke-miterlimit:4;stroke-dasharray:none;stroke-opacity:1"
       id="path4922" />
    <path
       style="display:inline;fill:#9c3f24;fill-opacity:0.21951222;fill-rule:evenodd;stroke:none;stroke-width:1px;stroke-linecap:butt;stroke-linejoin:miter;stroke-opacity:1"
       d="M 340.22176,504.68912 235.573,486.88187 l -58.1382,19.78583 0,-79.14332 38.7588,-79.14333 58.1382,-79.14332 96.897,-59.3575 96.897,19.78584 164.72491,79.14332 C 542.29474,291.22041 471.9681,249.57208 400.2979,281.10923 c -43.66174,19.21254 -75.71805,69.18459 -85.26936,116.7364 -7.20794,35.8852 25.19322,106.84349 25.19322,106.84349 z"
       id="path6401"
       inkscape:connector-curvature="0"
       sodipodi:nodetypes="cccccccccaac" />
    <g
       id="g6541"
       style="fill:#579253;fill-opacity:1">
      <path
         style="display:inline;fill:#579253;fill-opacity:1;fill-rule:evenodd;stroke:none;stroke-width:1px;stroke-linecap:butt;stroke-linejoin:miter;stroke-opacity:1"
         d="M 506.88461,690.67593 563.08487,787.6265 392.54614,856.87691 185.18656,839.06967 88.289553,767.84067 35.965172,666.93293 26.275473,469.07462 c 0,0 32.988786,163.52501 88.176267,218.63344 53.21615,53.13991 133.89918,83.25504 208.32856,82.1112 66.57855,-1.02319 184.10431,-79.14333 184.10431,-79.14333 z"
         id="path6403"
         inkscape:connector-curvature="0"
         sodipodi:nodetypes="cccccccaac" />
      <path
         sodipodi:nodetypes="ccccac"
         inkscape:connector-curvature="0"
         id="path6414"
         d="m 735.56153,399.82421 46.51056,53.42175 21.31734,-162.24382 -71.70378,-164.2224 c 0,0 30.02439,119.39983 27.13116,180.05107 -1.5243,31.95431 -23.25528,92.9934 -23.25528,92.9934 z"
         style="display:inline;fill:#579253;fill-opacity:1;fill-rule:evenodd;stroke:none;stroke-width:1px;stroke-linecap:butt;stroke-linejoin:miter;stroke-opacity:1" />
    </g>
    <path
       sodipodi:nodetypes="cscscsccsccsc"
       inkscape:connector-curvature="0"
       id="path6425"
       d="m 921.60378,924.14874 c 0,0 -63.70068,22.81543 -96.88806,23.4872 -53.31175,1.07911 -156.98209,-31.40153 -156.98209,-31.40153 0,0 47.07727,-14.39502 66.05667,-29.43344 12.37636,-9.80647 28.90239,-37.83839 28.90239,-37.83839 0,0 -20.1682,-120.76758 -46.53977,-172.122 -25.97777,-50.58753 -83.30221,-100.92247 -83.30221,-100.92247 l -9.6897,-152.3509 c 0,0 92.32289,61.58852 134.23795,104.28966 40.9103,41.67755 108.00456,141.05465 108.00456,141.05465 l 42.63468,-81.12191 c 0,0 21.10997,121.1751 23.25528,185.98681 1.57108,47.46348 -9.6897,150.37232 -9.6897,150.37232 z"
       style="display:inline;fill:#f8ce24;fill-opacity:1;fill-rule:evenodd;stroke:none;stroke-width:1px;stroke-linecap:butt;stroke-linejoin:miter;stroke-opacity:1" />
    <path
       style="display:inline;fill:#f8e164;fill-opacity:1;fill-rule:evenodd;stroke:none;stroke-width:1px;stroke-linecap:butt;stroke-linejoin:miter;stroke-opacity:1"
       d="m 811.14119,708.48318 c 19.37941,0 41.655,77.10773 38.75881,118.71499 -1.02396,14.71039 -19.3794,39.57166 -19.3794,39.57166 0,0 31.23393,3.91302 44.9602,11.08007 12.7259,6.6447 32.5574,28.49159 32.5574,28.49159 0,0 5.17373,-66.37857 0,-98.92915 -3.27216,-20.5868 -6.97993,-42.78302 -19.3794,-59.3575 -14.13758,-18.89781 -58.1382,-39.57166 -58.1382,-39.57166"
       id="path6427"
       inkscape:connector-curvature="0"
       sodipodi:nodetypes="cscscssc" />
    <path
       style="display:inline;fill:#43d97b;fill-opacity:1;fill-rule:evenodd;stroke:none;stroke-width:1px;stroke-linecap:butt;stroke-linejoin:miter;stroke-opacity:1"
       d="m 142.65618,508.5889 c 0,0 51.13368,84.73003 90.00991,112.43477 27.86163,19.8553 62.47074,31.10367 96.32652,34.03777 23.6785,2.05208 47.36204,-5.67009 70.33632,-11.8715 20.76837,-5.60598 60.46974,-22.75371 60.46974,-22.75371 l 20.68087,24.35456 c 0,0 -49.99852,34.23637 -78.81418,39.20307 -54.01734,9.31049 -111.71833,-0.73759 -163.18545,-19.89732 -17.78089,-6.61931 -35.50573,-16.82463 -47.47953,-31.78881 -27.51353,-34.38485 -48.3442,-123.71883 -48.3442,-123.71883 z"
       id="path6437"
       inkscape:connector-curvature="0"
       sodipodi:nodetypes="caaaccaaac" />
    <path
       sodipodi:nodetypes="caaaasccaaaacccccaaaasaaaaaaaccaacaac"
       inkscape:connector-curvature="0"
       d="m 445.83949,594.71465 c 0,0 -68.26407,26.67195 -103.77718,25.07176 -36.71959,-1.65455 -74.66297,-13.77235 -104.64876,-35.47388 -25.83512,-18.69759 -48.40863,-45.96075 -58.10255,-76.74041 -10.26382,-32.58922 -5.58574,-69.71035 3.60511,-102.63172 13.70184,-49.07953 39.20862,-96.70631 74.44445,-132.90453 0,0 65.41974,-63.63957 148.26668,-60.6717 M 181.49118,505.59354 c 0,0 49.93416,-13.5685 75.39916,-12.77592 33.31045,1.03676 67.6591,7.56118 97.44846,22.81475 36.53439,18.70735 66.70732,49.49427 93.43863,81.06086 45.24819,53.43288 77.83444,117.14592 110.13008,179.61217 14.05943,27.19373 36.1844,84.52868 36.1844,84.52868 L 468.1258,941.95599 c 174.41461,59.35751 317.1557,59.35751 503.86442,59.35751 -2.39886,-185.87784 0,-375.93081 -38.7588,-554.00329 l -75.57966,142.45798 c 0,0 -50.60294,-88.65798 -79.92065,-130.23034 -17.68258,-25.0738 -37.08065,-48.94447 -57.6731,-71.58514 -21.15819,-23.26268 -43.18676,-45.9359 -67.46268,-65.77267 -33.44224,-27.32692 -67.59681,-55.46329 -106.95192,-72.72815 -53.41613,-23.43333 -110.5012,-38.9249 -170.05424,-39.57166 -65.87357,-0.71539 -148.14645,22.2116 -209.2144,62.39568 -51.11647,33.63578 -92.940326,85.1198 -118.919684,141.25777 -23.995339,51.85076 -33.576233,112.32519 -28.971714,169.4792 5.129222,63.66696 22.927784,131.01959 62.05442,180.87063 34.985898,44.57534 88.688458,74.92698 142.507458,90.53474 51.55421,14.95096 107.91627,8.48966 160.78016,-0.50921 45.2722,-7.70656 89.05733,-24.8058 130.38107,-45.19706 15.78218,-7.78775 44.18436,-29.1126 44.18436,-29.1126 M 780.23155,458.98285 c 0,0 17.00142,-73.26665 17.34406,-110.6018 0.45538,-49.61824 -5.32395,-100.21455 -20.34837,-147.40444 -12.55151,-39.42282 -57.16923,-109.811363 -57.16923,-109.811363 0,0 3.96707,54.744323 2.90691,82.111193 -1.55483,40.13625 -5.67661,80.35248 -13.56558,119.70428 -4.32382,21.56815 -18.41043,63.31466 -18.41043,63.31466"
       style="display:inline;fill:none;fill-opacity:1;fill-rule:evenodd;stroke:#9c3f24;stroke-width:34.26773071;stroke-linecap:butt;stroke-linejoin:miter;stroke-miterlimit:4.19999981;stroke-dasharray:none;stroke-opacity:1"
       id="path4098" />
  </g>
</svg>
