<svg class="svg-inline--fa fa-idle fa-w-14" width="512" height="512" aria-hidden="true" data-icon="idle" data-prefix="fas" focusable="false" role="img" version="1.1" viewBox="0 0 512 512" xmlns="http://www.w3.org/2000/svg">
 <path fill="currentColor" d="m123.83 86.787c-19.9 0-36.045 16.146-36.045 36.047v137.38l-87.637 23.482 20.303 75.768 67.334-18.043v45.75c0 19.9 16.144 36.047 36.045 36.047h72.094c19.9 0 36.047-16.146 36.047-36.047v-84.383l48.059-12.879v97.262c0 19.901 16.145 36.047 36.045 36.047h72.094c19.901 0 36.047-16.147 36.047-36.047v-135.9l87.641-23.482-20.301-75.768-67.34 18.043v-47.236c0-19.901-16.147-36.047-36.047-36.047h-72.094c-19.901 0-36.045 16.147-36.045 36.047v85.871l-48.059 12.877v-98.748c0-19.9-16.146-36.047-36.047-36.047h-72.094z"/>
</svg>
