<svg class="svg-inline--fa fa-play-force fa-w-14" width="512" height="512" aria-hidden="true" data-icon="play-force" data-prefix="fas" focusable="false" role="img" version="1.1" viewBox="0 0 512 512" xmlns="http://www.w3.org/2000/svg">
 <path fill="currentColor" d="m43.561 0.042969c-21.667-0.49566-43.561 14.667-43.561 42.523v369.74c0 33.322 36.164 53.404 64.332 36.699l312.78-184.82c27.901-16.439 27.99-56.958 0-73.396l-312.78-184.91c-6.3533-3.7542-13.549-5.661-20.771-5.8262zm430.79 142.1c-6.6683 0-15.89 0.24987-20.391 0.75-4.3344 0.50012-7.8363 1.3329-10.504 2.5-2.5006 1.0002-4.2517 2.3349-5.252 4.002-1.0002 1.6671-1.589 9.0439-1.5 11.209l10.141 246.39c0.16667 1.6671 0.66647 3.1683 1.5 4.502 0.83354 1.3337 2.2514 2.5017 4.252 3.502 2.1672 0.83354 5.0011 1.4999 8.502 2 3.5008 0.50011 7.9168 0.75 13.252 0.75 5.1679 0 9.5026-0.24989 13.004-0.75 3.6676-0.50013 6.5014-1.1665 8.502-2 2.1672-1.0002 3.6684-2.1682 4.502-3.502 0.8335-1.3336 1.3333-2.8349 1.5-4.502l10.141-244.57c0-2.1672-0.58304-11.279-1.75-12.779-1.0002-1.6671-2.8346-3.0017-5.502-4.002-2.5006-1.1669-5.9177-1.9999-10.252-2.5-4.3344-0.6668-13.475-1-20.145-1v-0.00195zm0 296.09c-6.835 0-12.585 0.66633-17.252 2-4.5011 1.1669-8.0862 3.2511-10.754 6.252-2.6674 2.834-4.5832 6.6673-5.75 11.502-1.0002 4.6678-1.502 10.503-1.502 17.504 0 6.835 0.50174 12.588 1.502 17.256 1.1669 4.6679 3.0826 8.4178 5.75 11.252 2.6674 2.834 6.2524 4.835 10.754 6.002 4.6679 1.3337 10.418 2 17.252 2 6.835 0 12.504-0.66633 17.004-2 4.5011-1.1669 8.0862-3.1679 10.754-6.002 2.834-2.834 4.7497-6.584 5.75-11.252 1.1669-4.6679 1.752-10.42 1.752-17.256 0-7.0018-0.58505-12.836-1.752-17.504-1.0003-4.8346-2.9159-8.6677-5.75-11.502-2.6674-3.0007-6.2524-5.085-10.754-6.252-4.5012-1.3337-10.169-2-17.004-2z"/>
</svg>
