<svg class="svg-inline--fa fa-magnet fa-w-16" aria-hidden="true" data-icon="magnet" data-prefix="fas" focusable="false" role="img" version="1.1" viewBox="0 0 512 512" xmlns="http://www.w3.org/2000/svg">
 <path fill="currentColor" d="m189.84-1.1632e-4c-20.372 0.11415-40.818 3.4556-60.406 10.116-18.619 6.3313-33.717 14.103-50.644 26.068-11.898 8.4095-32.789 29.009-40.897 40.325-25.347 35.375-37.557 72.547-37.618 114.51-0.048285 33.236 9.2352 67.35 26.034 95.667 9.8892 16.67 14.794 22.913 29.71 37.805 12.488 12.467 15.985 15.452 53.263 45.445 21.943 17.655 40.888 32.808 42.099 33.673l2.2024 1.5698 32.199-32.197c21.315-21.314 32-32.398 31.612-32.787-0.32289-0.32289-18.307-14.869-39.964-32.325-41.907-33.778-45.412-36.979-53.41-48.762-20.18-29.726-22.061-69.73-4.7585-101.15 5.1201-9.2987 8.596-13.859 16.859-22.122 8.2626-8.2632 12.824-11.739 22.122-16.859 31.353-17.263 71.464-15.398 101.08 4.7015 11.715 7.9518 14.705 11.203 46.378 50.43 16.407 20.32 31.041 38.476 32.523 40.347l2.6956 3.4009 64.558-64.558-1.5718-2.2024c-0.86408-1.2101-16.019-20.154-33.675-42.097-29.802-37.038-33.037-40.833-45.158-52.968-14.789-14.806-22.055-20.526-38.3-30.142-29.228-17.303-62.976-26.077-96.93-25.887zm228.21 169.11c-0.28467 0-14.976 14.458-32.647 32.129-26.737 26.737-31.995 32.262-31.337 32.92 0.9496 0.95059 38.573 47.482 41.997 51.942l2.4009 3.1258 64.532-65.133-22.215-27.492c-12.218-15.12-22.447-27.492-22.731-27.492zm81.998 129.16-228.12 8e-3s-8.2949 7.588-8.2949 19.676c0 6.9749-1.8498 22.21 0.32615 35.083 1.9599 11.596 7.9688 21.278 7.9688 21.278l13.934-0.26129 49.538-10.372 15.912-0.0707-2.1906 141.03s25.933 7.19 39.219 7.1141c12.5-0.0713 24.562-2.9479 36.818-7.1141l-2.1887-140.86 17.523 0.31827 44.078 9.6289 15.474 0.57745s5.4496-8.8662 6.8627-19.718c1.6751-12.865-0.64049-28.52-0.64049-35.506 0-12.467-6.2222-20.814-6.2222-20.814zm-265.78 55.447c-1.2478 0.13361-7.6703 6.3225-32.736 31.388-17.67 17.67-32.129 32.364-32.129 32.653 0 0.40036 54.368 44.488 55.339 44.875 0.11366 0.0462 14.733-14.444 32.486-32.197l32.28-32.28-3.1199-2.395c-4.4572-3.4222-50.989-41.044-51.939-41.993-0.041-0.0412-0.0996-0.06-0.18272-0.0511z" />
</svg>
