<svg class="svg-inline--fa fa-object-group fa-w-16" aria-hidden="true" data-icon="object-group" data-prefix="far" focusable="false" role="img" version="1.1" viewBox="0 0 512 512" xmlns="http://www.w3.org/2000/svg">
 <path d="m500 128c6.627 0 12-5.373 12-12v-72c0-6.627-5.373-12-12-12h-72c-6.627 0-12 5.373-12 12v12h-320v-12c0-6.627-5.373-12-12-12h-72c-6.627 0-12 5.373-12 12v72c0 6.627 5.373 12 12 12h12v256h-12c-6.627 0-12 5.373-12 12v72c0 6.627 5.373 12 12 12h72c6.627 0 12-5.373 12-12v-12h320v12c0 6.627 5.373 12 12 12h72c6.627 0 12-5.373 12-12v-72c0-6.627-5.373-12-12-12h-12v-256zm-52-64h32v32h-32zm-416 0h32v32h-32zm32 384h-32v-32h32zm416 0h-32v-32h32zm-40-64h-12c-6.627 0-12 5.373-12 12v12h-320v-12c0-6.627-5.373-12-12-12h-12v-256h12c6.627 0 12-5.373 12-12v-12h320v12c0 6.627 5.373 12 12 12h12zm-207.89-64 30.429 32.475 28.584-34.803s-4.1262 4.252 20.856 0.30962c3.4738-0.54822 6.2179-7.451 7.2856-9.9818 3.1357-7.4326 0.50169-24.196 0.50169-24.196l72.676-90.525-27.945-19.207-44.501 54.499v-88.571c0-6.628-5.373-12-12-12h-200c-6.627 0-12 5.372-12 12v168c0 6.628 5.373 12 12 12m28-152h144v96.046l-10.971 15.954h-13.76l-41.691-56.32-35.129 16.549 26.352 39.771h-68.8z" fill="currentColor"/>
</svg>
