<svg aria-hidden="true" focusable="false" data-prefix="far" data-icon="play-circle" class="svg-inline--fa fa-play-circle fa-w-16" role="img" xmlns="http://www.w3.org/2000/svg" viewBox="0 0 512 512"><path fill="currentColor" d="M 36.662764,53.349488 C 24.285942,57.314876 13.826509,65.365813 7.5780168,75.82524 -0.35798655,89.168585 0.0025034,80.151117 0.0025034,255.98652 c 0,175.8354 -0.36048995,166.81793 7.5702889,180.16128 5.0468597,8.29126 12.7373117,15.14579 22.4757647,19.83216 l 7.810615,3.72506 H 256.00261 474.14083 l 8.05094,-3.84523 c 9.01225,-4.20571 18.02972,-12.49697 22.95642,-20.79346 7.08963,-12.25665 6.8493,-4.92669 6.8493,-179.07981 0,-175.835403 0.36049,-166.817935 -7.57028,-180.16128 -5.04686,-8.291264 -12.74254,-15.145793 -22.47577,-19.83216 L 474.14083,52.268019 257.80506,52.027693 C 85.339356,51.907529 40.50799,52.147856 36.662764,53.349488 Z M 461.52368,255.98652 v 153.8403 H 256.00261 50.481545 V 255.98652 102.14622 H 256.00261 461.52368 Z"></path><path fill="currentColor" d="m 162.98053,155.74947 c -27.76295,6.00817 -49.99839,27.28228 -57.92917,55.16538 -2.64881,9.4929 -3.85045,63.69697 -1.80767,79.32342 4.08555,30.64685 23.55723,54.4444 52.28149,63.9373 9.37274,3.12424 10.8147,3.2444 41.94745,3.72506 l 32.08883,0.48065 v -25.35967 -25.35967 h -28.00328 c -27.64279,0 -28.12344,0 -34.25177,-3.12424 -7.2098,-3.6049 -12.98286,-11.30057 -14.06433,-18.99102 -0.48066,-2.64359 -0.60082,-17.66922 -0.36049,-33.17028 0.36049,-27.64277 0.48065,-28.48392 3.48473,-34.25175 2.16294,-4.20572 4.68637,-7.08963 8.89209,-9.61306 l 5.76784,-3.6049 29.32507,-0.36049 29.20491,-0.36049 v -25.11934 -25.23951 l -29.08474,0.12016 c -20.90842,0 -31.60296,0.60082 -37.49096,1.80245 z"></path><path fill="currentColor" d="m 343.13669,155.62931 c -28.72426,6.24849 -52.28149,29.08473 -58.77031,57.08799 -2.64359,11.29535 -2.64359,75.23787 0,86.53321 4.92669,21.03379 20.67331,40.86073 40.13977,50.35885 15.26597,7.45012 22.23544,8.53159 56.24688,8.53159 h 29.08475 v -25.2395 -25.23951 H 381.5994 c -30.76703,0 -33.89128,-0.48065 -40.62043,-6.96947 -7.81061,-7.32996 -8.05094,-8.89208 -8.05094,-44.71118 0,-35.81387 0.24033,-37.37599 8.05094,-44.71117 6.72915,-6.48882 9.8534,-6.96947 40.62043,-6.96947 h 28.2436 v -25.23951 -25.2395 l -29.68556,0.12016 c -19.83217,0.005 -32.21422,0.60604 -37.02075,1.68751 z"></path></svg>