<svg width="164" height="314" version="1.1" viewBox="0 0 164 314" xmlns="http://www.w3.org/2000/svg">
 <title>ArrowDL Installation Lateral Icon</title>
 <g>
  <rect y="-1" width="165" height="315" fill="#ff8700"/>
 </g>
 <g transform="translate(0 -738.36)">
  <path d="m35.241 952.81s-15.888 6.0801-24.153 5.7153c-8.5461-0.37718-17.377-3.1395-24.356-8.0865-6.0128-4.2622-11.267-10.477-13.523-17.494-2.3888-7.4289-1.3-15.891 0.83906-23.396 3.1889-11.188 9.1253-22.045 17.326-30.297 0 0 15.226-14.507 34.507-13.831m-52.165 67.072s11.622-3.093 17.548-2.9124c7.7526 0.23635 15.747 1.7236 22.68 5.2008 8.5029 4.2645 15.525 11.283 21.747 18.478 10.531 12.18 18.115 26.704 25.631 40.944 3.2722 6.1991 8.4215 19.269 8.4215 19.269l-29.317 18.492c40.593 13.531 73.814 13.531 117.27 13.531-0.55826-42.372 0-85.696-9.0206-126.29l-17.59 32.474s-11.777-20.21-18.601-29.687c-4.1154-5.7157-8.6301-11.157-13.423-16.318-4.9243-5.3029-10.051-10.471-15.701-14.993-7.7833-6.2294-15.732-12.643-24.892-16.579-12.432-5.3418-25.718-8.8732-39.578-9.0206-15.331-0.16316-34.479 5.0633-48.692 14.224-11.897 7.6676-21.631 19.404-27.677 32.201-5.5846 11.82-7.8145 25.605-6.7428 38.634 1.1938 14.513 5.3362 29.867 14.442 41.231 8.1425 10.161 20.641 17.08 33.167 20.638 11.999 3.4083 25.116 1.9353 37.42-0.1157 10.537-1.757 20.727-5.6548 30.345-10.303 3.6731-1.7751 10.283-6.6364 10.283-6.6364m51.631-73.087s3.9569-16.702 4.0366-25.212c0.10587-11.311-1.2391-22.845-4.7358-33.602-2.9212-8.9867-13.305-25.032-13.305-25.032s0.92328 12.479 0.67655 18.718c-0.36187 9.1494-1.3212 18.317-3.1572 27.287-1.0063 4.9166-4.2848 14.433-4.2848 14.433" fill="none" stroke="#ffc37d" stroke-miterlimit="4.2" stroke-width="16.558"/>
 </g>
 <g fill="#ffc37d" fill-rule="evenodd">
  <path d="m35.709 211.82 16.766 25.679 6.8966 24.723-12.057 7.0693-25.351 1.6371-31 3.5119-31.023-17.527 15.68-46.67 24.371 8.8404 26.244-2.3077z"/>
  <path d="m90.793 158.07 23.813 22.36 6.4422-21.476-2.2932-21.833-17.063-29.678z"/>
 </g>
 <g>
  <rect x="101.65" y="13.833" width="48.967" height="48.437" fill="#ea7b00"/>
 </g>
 <g transform="translate(0 -738.36)">
  <path d="m116.25 775.9c1.3761 0.042 2.7951 0.30595 4.0257 0.92315 1.5093 0.75695 2.7558 2.0027 3.8601 3.28 1.8693 2.162 3.2154 4.74 4.5496 7.2676 0.58081 1.1003 1.4948 3.4203 1.4948 3.4203l-5.2038 3.2824c7.2053 2.4018 13.102 2.4018 20.815 2.4018-0.0991-7.5211 0-15.211-1.6012-22.417l-3.1223 5.7642s-2.0905-3.5874-3.3016-5.2695c-0.73049-1.0146-1.5318-1.9804-2.3826-2.8965-0.87407-0.94128-1.7841-1.8587-2.787-2.6614-1.3815-1.1057-2.4729-2.1131-4.4183-2.9428-1.9454-0.82968-4.6145-1.5736-7.2053-1.6012-4.0029 1.6012-7.2053 4.8035-7.8704 11.969 0 0 2.0949-0.55216 3.1469-0.52009z" fill="#fff" fill-rule="evenodd"/>
 </g>
 <g>
  <rect x="101.08" y="13.331" width="48.838" height="48.838" fill="none" stroke="#fff" stroke-miterlimit="4.2" stroke-width="4"/>
 </g>
 <g transform="translate(0 -738.36)">
  <path d="m137.87 774.53s0.70234-2.9646 0.7165-4.4752c0.0188-2.0077-0.21994-4.055-0.84062-5.9644-0.51852-1.5952-2.3617-4.4433-2.3617-4.4433s0.16389 2.2151 0.12009 3.3224c-0.0642 1.624-0.2345 3.2513-0.56041 4.8436-0.17863 0.87271-0.76056 2.5619-0.76056 2.5619" fill="#fff" fill-rule="evenodd"/>
 </g>
 <g transform="translate(0 -738.36)">
  <path d="m120.98 764.45c-2.7213-0.029-5.993 0.92287-8.4628 2.5247-2.1078 1.367-3.8395 3.4442-4.9127 5.7157-0.99129 2.098-1.3871 4.545-1.1969 6.8576 0.2119 2.5761 0.94718 5.3014 2.5636 7.3185 1.4453 1.8036 3.6638 3.0318 5.8872 3.6633 2.1298 0.60496 4.4582 0.34352 6.642-0.0206 1.8703-0.31182 3.6908-0.97998 5.3862-1.8288 0.65605-0.32845 1.8153-1.2446 1.8153-1.2446-2.1178-3.7716-4.5996-7.3743-4.5996-7.3743s-2.8601 1.0392-4.3272 0.97444c-1.5169-0.0669-3.0844-0.55727-4.3232-1.4354-1.0673-0.75656-1.9998-1.8597-2.4003-3.1051-0.42401-1.3187-0.23076-2.8207 0.14893-4.1528 0.56604-1.9859 1.5946-3.9385 3.0754-5.3777 1.2751-1.2392 4.704-2.515 4.704-2.515" fill="#fff" fill-rule="evenodd"/>
 </g>
 <g transform="translate(0 -738.36)" fill="none" stroke-miterlimit="4.2">
  <path d="m124.06 780.02s-2.8201 1.0792-4.2872 1.0145c-1.5169-0.0669-3.0844-0.55727-4.3232-1.4354-1.0673-0.75656-1.9998-1.8597-2.4003-3.1051-0.42401-1.3186-0.23076-2.8207 0.14893-4.1528 0.56604-1.9859 1.6198-3.913 3.0754-5.3777 0 0 2.7026-2.575 6.1251-2.455m-9.2594 11.905s2.0628-0.54902 3.1148-0.51695c1.3761 0.042 2.7951 0.30595 4.0257 0.92315 1.5093 0.75695 2.7558 2.0027 3.8601 3.28 1.8693 2.162 3.2154 4.74 4.5496 7.2676 0.58081 1.1003 1.4948 3.4203 1.4948 3.4203l-5.2038 3.2824c7.2053 2.4018 13.102 2.4018 20.815 2.4018-0.0991-7.5211 0-15.211-1.6012-22.417l-3.1223 5.7642s-2.0905-3.5874-3.3016-5.2695c-0.73049-1.0146-1.5318-1.9804-2.3826-2.8965-0.87407-0.94128-1.7841-1.8587-2.787-2.6614-1.3815-1.1057-2.7925-2.2442-4.4183-2.9428-2.2067-0.94819-4.565-1.575-7.0252-1.6012-2.7213-0.029-6.1201 0.89874-8.6429 2.5247-2.1117 1.361-3.8395 3.4442-4.9127 5.7157-0.99129 2.098-1.3871 4.545-1.1969 6.8576 0.2119 2.5761 0.94718 5.3014 2.5636 7.3185 1.4453 1.8036 3.6638 3.0318 5.8872 3.6633 2.1298 0.60496 4.4582 0.34352 6.642-0.0206 1.8703-0.31182 3.6791-1.0037 5.3862-1.8288 0.65198-0.31511 1.8253-1.178 1.8253-1.178m9.1646-12.973s0.70234-2.9646 0.7165-4.4753c0.0188-2.0077-0.21994-4.055-0.84062-5.9644-0.51852-1.5952-2.3617-4.4433-2.3617-4.4433s0.16389 2.2151 0.12009 3.3224c-0.0642 1.624-0.2345 3.2513-0.56041 4.8436-0.17863 0.87271-0.76056 2.5619-0.76056 2.5619" stroke="#fff" stroke-width="1.401"/>
  <path d="m123.99 780.04c-4.1216 1.6671-9.6326 0.18143-11.011-3.526-0.42401-1.3186-0.23076-2.8207 0.14893-4.1528 0.56604-1.9859 1.6198-3.913 3.0754-5.3777 0 0 2.7026-2.575 6.1251-2.455m-9.2594 11.905s2.0628-0.54902 3.1148-0.51695c1.3761 0.042 2.7951 0.30595 4.0257 0.92315 1.5093 0.75695 2.7558 2.0027 3.8601 3.28 1.8693 2.162 3.2154 4.74 4.5496 7.2676 0.58081 1.1003 1.4948 3.4203 1.4948 3.4203l-5.2038 3.2824c7.2053 2.4018 13.102 2.4018 20.815 2.4018-0.0991-7.5211 0-15.211-1.6012-22.417l-3.1223 5.7642s-2.0905-3.5874-3.3016-5.2695c-0.73049-1.0146-1.5318-1.9804-2.3826-2.8965-0.87407-0.94128-1.7841-1.8587-2.787-2.6614-1.3815-1.1057-2.7975-2.2328-4.4183-2.9428-1.9913-0.87227-3.8774-1.5125-6.3377-1.5387" stroke="#ea7b00" stroke-width="1.601"/>
 </g>
</svg>
