<svg width="150" height="57" version="1.1" xmlns="http://www.w3.org/2000/svg" xmlns:xlink="http://www.w3.org/1999/xlink">
 <title>DownZemAll Installation Header</title>
 <defs>
  <linearGradient id="linearGradient1005" x1="-149.34" x2=".6579" y1="-1024.4" y2="-1024.4" gradientUnits="userSpaceOnUse">
   <stop stop-color="#ffe4c7" offset="0"/>
   <stop stop-color="#ffe4c7" stop-opacity="0" offset="1"/>
  </linearGradient>
 </defs>
 <g transform="translate(.65789 -996.02)">
  <rect transform="scale(-1)" x="-149.34" y="-1053" width="150" height="57.237" fill="url(#linearGradient1005)"/>
  <g transform="translate(-1.3713 -.76487)">
   <rect x="51.86" y="1001.2" width="48.967" height="48.437" fill="#ea7b00"/>
   <path d="m66.466 1025c1.3761 0.042 2.7951 0.3059 4.0257 0.9231 1.5093 0.757 2.7558 2.0027 3.8601 3.28 1.8693 2.162 3.2154 4.74 4.5496 7.2676 0.58081 1.1003 1.4948 3.4202 1.4948 3.4202l-5.2038 3.2824c7.2053 2.4018 13.102 2.4018 20.815 2.4018-0.0991-7.5211 0-15.211-1.6012-22.416l-3.1223 5.7642s-2.0905-3.5873-3.3016-5.2694c-0.73049-1.0146-1.5318-1.9805-2.3826-2.8966-0.87407-0.9412-1.7841-1.8587-2.787-2.6613-1.3815-1.1057-2.4729-2.1131-4.4183-2.9428s-4.6145-1.5736-7.2053-1.6012c-4.0029 1.6012-7.2053 4.8036-7.8704 11.968 0 0 2.0949-0.5521 3.1469-0.52z" fill="#fff" fill-rule="evenodd"/>
   <rect x="51.295" y="1000.7" width="48.838" height="48.838" fill="none" stroke="#fff" stroke-miterlimit="4.2" stroke-width="4"/>
   <path d="m88.086 1023.6s0.70234-2.9646 0.7165-4.4752c0.0188-2.0077-0.21994-4.055-0.84062-5.9644-0.51852-1.5952-2.3617-4.4433-2.3617-4.4433s0.16389 2.2151 0.12009 3.3224c-0.0642 1.6241-0.2345 3.2513-0.56041 4.8436-0.17863 0.8727-0.76056 2.5619-0.76056 2.5619" fill="#fff" fill-rule="evenodd"/>
   <path d="m71.189 1013.5c-2.7213-0.029-5.993 0.9229-8.4628 2.5247-2.1078 1.3671-3.8395 3.4442-4.9127 5.7157-0.99129 2.098-1.3871 4.545-1.1969 6.8576 0.2119 2.5761 0.94718 5.3014 2.5636 7.3185 1.4453 1.8037 3.6638 3.0318 5.8872 3.6633 2.1298 0.605 4.4582 0.3435 6.642-0.021 1.8703-0.3118 3.6908-0.98 5.3862-1.8288 0.65605-0.3284 1.8153-1.2446 1.8153-1.2446-2.1178-3.7716-4.5996-7.3743-4.5996-7.3743s-2.8601 1.0392-4.3272 0.9745c-1.5169-0.067-3.0844-0.5573-4.3232-1.4354-1.0673-0.7566-1.9998-1.8597-2.4003-3.1051-0.42401-1.3187-0.23076-2.8207 0.14893-4.1528 0.56604-1.9859 1.5946-3.9385 3.0754-5.3777 1.2751-1.2392 4.704-2.515 4.704-2.515" fill="#fff" fill-rule="evenodd"/>
   <path d="m74.272 1029.1s-2.8201 1.0792-4.2872 1.0145c-1.5169-0.067-3.0844-0.5573-4.3232-1.4354-1.0673-0.7566-1.9998-1.8597-2.4003-3.1051-0.42401-1.3187-0.23076-2.8207 0.14893-4.1528 0.56604-1.9859 1.6198-3.913 3.0754-5.3777 0 0 2.7026-2.575 6.1251-2.4549m-9.2594 11.905s2.0628-0.549 3.1148-0.5169c1.3761 0.042 2.7951 0.3059 4.0257 0.9231 1.5093 0.757 2.7558 2.0027 3.8601 3.28 1.8693 2.162 3.2154 4.74 4.5496 7.2676 0.58081 1.1003 1.4948 3.4202 1.4948 3.4202l-5.2038 3.2824c7.2053 2.4018 13.102 2.4018 20.815 2.4018-0.0991-7.5211 0-15.211-1.6012-22.416l-3.1223 5.7642s-2.0905-3.5873-3.3016-5.2694c-0.73049-1.0146-1.5318-1.9805-2.3826-2.8966-0.87407-0.9412-1.7841-1.8587-2.787-2.6613-1.3815-1.1057-2.7925-2.2442-4.4183-2.9428-2.2067-0.9482-4.565-1.575-7.0252-1.6012-2.7213-0.029-6.1201 0.8988-8.6429 2.5247-2.1117 1.361-3.8395 3.4442-4.9127 5.7157-0.99129 2.098-1.3871 4.545-1.1969 6.8576 0.2119 2.5761 0.94718 5.3014 2.5636 7.3185 1.4453 1.8037 3.6638 3.0318 5.8872 3.6633 2.1298 0.605 4.4582 0.3435 6.642-0.021 1.8703-0.3118 3.6791-1.0037 5.3862-1.8288 0.65198-0.3151 1.8253-1.1779 1.8253-1.1779m9.1646-12.973s0.70234-2.9646 0.7165-4.4752c0.0188-2.0077-0.21994-4.055-0.84062-5.9644-0.51852-1.5952-2.3617-4.4433-2.3617-4.4433s0.16389 2.2151 0.12009 3.3224c-0.0642 1.6241-0.2345 3.2513-0.56041 4.8436-0.17863 0.8727-0.76056 2.5619-0.76056 2.5619" fill="none" stroke="#fff" stroke-miterlimit="4.2" stroke-width="1.401"/>
   <path d="m74.207 1029.1c-4.1216 1.667-9.6326 0.1814-11.011-3.5261-0.42401-1.3186-0.23076-2.8206 0.14893-4.1527 0.56604-1.9859 1.6198-3.913 3.0754-5.3777 0 0 2.7026-2.575 6.1251-2.455m-9.2594 11.905s2.0628-0.549 3.1148-0.517c1.3761 0.042 2.7951 0.306 4.0257 0.9232 1.5093 0.7569 2.7558 2.0027 3.8601 3.2799 1.8693 2.1621 3.2154 4.7401 4.5496 7.2676 0.58081 1.1004 1.4948 3.4203 1.4948 3.4203l-5.2038 3.2824c7.2053 2.4018 13.102 2.4018 20.815 2.4018-0.0991-7.5211 0-15.211-1.6012-22.416l-3.1223 5.7642s-2.0905-3.5873-3.3016-5.2695c-0.73049-1.0145-1.5318-1.9804-2.3826-2.8965-0.87407-0.9413-1.7841-1.8587-2.787-2.6613-1.3815-1.1058-2.7975-2.2328-4.4183-2.9428-1.9913-0.8723-3.8774-1.5125-6.3377-1.5387" fill="none" stroke="#ea7b00" stroke-miterlimit="4.2" stroke-width="1.601"/>
  </g>
 </g>
</svg>
