<svg xmlns="http://www.w3.org/2000/svg" width="16" height="16" fill="#e5e5e5" class="bi bi-pause" viewBox="0 0 16 16">
<path d="M 6 3.5 A 0.5 0.5 0 0 0 5.5 4 L 5.5 7.9882812 L 3.3164062 8.5058594 C 2.5579749 8.6854298 2.8275063 9.8221486 3.5859375 9.6425781 L 5.5 9.1894531 L 5.5 12 A 0.5 0.5 0 0 0 6.5 12 L 6.5 8.953125 L 9.5 8.2421875 L 9.5 12 A 0.5 0.5 0 0 0 10.5 12 L 10.5 8.0058594 L 12.6875 7.4882812 C 13.001652 7.4139005 13.195474 7.0993085 13.121094 6.7851562 C 13.046713 6.4710041 12.732121 6.2771826 12.417969 6.3515625 L 10.5 6.8046875 L 10.5 4 A 0.5 0.5 0 0 0 10 3.5 A 0.5 0.5 0 0 0 9.5 4 L 9.5 7.0429688 L 6.5 7.7519531 L 6.5 4 A 0.5 0.5 0 0 0 6 3.5 z"/>
</svg>