<svg class="svg-inline--fa fa-tv fa-w-20" width="512" height="512" aria-hidden="true" data-icon="tv" data-prefix="fas" focusable="false" role="img" version="1.1" viewBox="0 0 512 512" xmlns="http://www.w3.org/2000/svg">
 <path fill="#e5e5e5" d="m336 0.29777c-5.6147 0.054696-10.597 2.6742-14.463 6.5402l-60.738 60.74h-10.171l-60.738-60.738h-2e-3c-6.6972-6.6971-21.168-9.2423-33.964 3.5529-12.795 12.796-10.044 24.991-2.3124 32.723l24.462 24.462h-140.45c-21.207 0-38.398 17.191-38.398 38.398v290.25c0 21.207 17.191 38.398 38.398 38.398h191.99v25.598h-140.79c-7.0688 0-12.799 5.7303-12.799 12.799v25.598c0 7.0688 5.7304 12.799 12.799 12.799h332.78c7.0688 0 12.799-5.7304 12.799-12.799v-25.598c0-7.0688-5.7304-12.799-12.799-12.799h-140.79v-25.598h191.99c21.207 0 38.398-17.191 38.398-38.398v-290.25c0-21.207-17.191-38.398-38.398-38.398h-139.45l24.462-24.462c6.6971-6.6972 9.2407-21.168-3.5544-33.963-6.398-6.3977-12.645-8.9088-18.26-8.8541zm-285.57 118.48h409.57v264.65h-409.57zm280.05 31.875c-4.0778 0.0249-7.1726 1.6387-7.1792 1.6421l-117.65 46.772s-4.5704 1.6966-5.3934 5.2512c-1.1299 4.8798-0.46559 20.052-0.46559 20.052v72.558c-4.3948-0.94081-8.9902-1.4202-13.616-1.4202-24.074-2e-4 -43.591 12.704-43.591 28.378 8e-4 15.672 19.517 28.376 43.591 28.376 24.074 2.2e-4 43.59-12.704 43.591-28.376-0.60892-23.326 0.56269-48.76 0.639-72.85l83.259-33.081v51.909c-4.5894-1.0352-9.4121-1.5638-14.269-1.564-24.074-2.2e-4 -43.591 12.704-43.591 28.378 8e-4 15.672 19.517 28.378 43.591 28.378 24.074 2.2e-4 43.59-12.705 43.591-28.378-0.71444-38.634 0.0218-130.39 0.0218-130.39s1.3715-9.2546-4.5669-13.265c-2.7029-1.825-5.5064-2.3836-7.9557-2.3686z"/>
</svg>
