<svg class="svg-inline--fa fa-project-diagram fa-w-20" width="512" height="512" aria-hidden="true" data-icon="project-diagram" data-prefix="fas" focusable="false" role="img" version="1.1" viewBox="0 0 512 512" xmlns="http://www.w3.org/2000/svg">
 <path fill="#e5e5e5" d="m108.22-5e-7 -108.22 108.25c28.089 0.19139 56.179 0.38279 84.268 0.57418v68.964c48.676 37.004 97.352 74.008 146.03 111.01v44.411h51.409v-44.413c48.676-37.004 97.352-74.007 146.03-111.01v-68.957c28.089-0.19139 56.179-0.38279 84.268-0.57418-36.073-36.084-72.146-72.168-108.22-108.25l-108.22 108.25c26.922 0.18359 53.843 0.36718 80.765 0.55077v36.259l-120.33 87.624-120.33-87.624v-36.265c26.92-0.18359 53.84-0.36718 80.76-0.55077zm96.672 358.62c-14.111 0-25.555 11.448-25.555 25.563v102.25c0 14.116 11.444 25.563 25.555 25.563h102.22c14.111 0 25.555-11.448 25.555-25.563v-102.25c0-14.116-11.444-25.563-25.555-25.563z"/>
</svg>
