<svg class="svg-inline--fa fa-project-diagram fa-w-20" width="512" height="512" aria-hidden="true" data-icon="project-diagram" data-prefix="fas" focusable="false" role="img" version="1.1" viewBox="0 0 512 512" xmlns="http://www.w3.org/2000/svg">
 <path fill="#e5e5e5" d="m256 1.1e-6 -107.36 107.36 81.863 0.55863v35.952l-144.87 110.1v76.496h50.996v-44.043l119.38-86.906 119.38 86.906v44.043h50.996v-76.496l-144.87-110.1v-35.952l81.863-0.55863zm97.65 359.66c-14 0-25.353 11.354-25.353 25.353v101.41c0 14 11.354 25.353 25.353 25.353h101.41c14 0 25.353-11.354 25.353-25.353v-101.41c0-14-11.354-25.353-25.353-25.353zm-296.71 0.22057c-14 0-25.353 11.354-25.353 25.353v101.41c0 14 11.354 25.353 25.353 25.353h101.41c14 0 25.353-11.354 25.353-25.353v-101.41c0-14-11.354-25.353-25.353-25.353z"/>
</svg>
