<svg class="svg-inline--fa fa-object-group fa-w-16" aria-hidden="true" data-icon="object-group" data-prefix="far" focusable="false" role="img" version="1.1" viewBox="0 0 512 512" xmlns="http://www.w3.org/2000/svg">
 <path d="m500 128c6.627 0 12-5.373 12-12v-72c0-6.627-5.373-12-12-12h-72c-6.627 0-12 5.373-12 12v12h-320v-12c0-6.627-5.373-12-12-12h-72c-6.627 0-12 5.373-12 12v72c0 6.627 5.373 12 12 12h12v256h-12c-6.627 0-12 5.373-12 12v72c0 6.627 5.373 12 12 12h72c6.627 0 12-5.373 12-12v-12h320v12c0 6.627 5.373 12 12 12h72c6.627 0 12-5.373 12-12v-72c0-6.627-5.373-12-12-12h-12v-256zm-52-64h32v32h-32zm-416 0h32v32h-32zm32 384h-32v-32h32zm416 0h-32v-32h32zm-40-64h-12c-6.627 0-12 5.373-12 12v12h-320v-12c0-6.627-5.373-12-12-12h-12v-256h12c6.627 0 12-5.373 12-12v-12h320v12c0 6.627 5.373 12 12 12h12zm-36-192h-84v-52c0-6.628-5.373-12-12-12h-200c-6.627 0-12 5.372-12 12v168c0 6.628 5.373 12 12 12h84v52c0 6.628 5.373 12 12 12h200c6.627 0 12-5.372 12-12v-168c0-6.628-5.373-12-12-12zm-28 152h-144v-24h76c6.627 0 12-5.372 12-12v-76h56z" fill="#e5e5e5"/>
</svg>
