<svg xmlns="http://www.w3.org/2000/svg" width="16" height="16" fill="currentColor" class="bi bi-diagram-2" viewBox="0 0 16 16">
<path d="M 4.8203125 3.5019531 C 4.4004079 3.5021875 4 3.8188454 4 4.3085938 L 4 11.691406 C 4 12.344406 4.7124239 12.690672 5.2324219 12.388672 L 6.2949219 11.771484 C 6.2156297 11.585309 6.1652175 11.380761 6.15625 11.158203 L 6.1523438 11.103516 L 6.1503906 11.021484 L 6.1523438 11.054688 C 6.1442738 10.924743 6.1539543 10.801946 6.1757812 10.685547 L 5 11.367188 L 5 4.6328125 L 6.28125 5.3769531 L 6.2519531 5.0859375 C 6.2107049 4.7948274 6.246556 4.5117863 6.34375 4.2558594 L 5.2324219 3.6113281 C 5.1024223 3.5358285 4.9602808 3.501875 4.8203125 3.5019531 z M 7.8613281 4.0078125 A 0.905 0.905 0 0 0 7.0976562 4.9980469 L 7.4472656 8.5039062 A 0.553 0.553 0 0 0 8.5488281 8.5039062 L 8.8984375 4.9980469 A 0.905 0.905 0 0 0 7.8613281 4.0078125 z M 9.6347656 6.1660156 C 9.6273956 6.2374256 9.6187282 6.3103374 9.6132812 6.3789062 L 9.6132812 6.3886719 L 9.6132812 6.3984375 C 9.5840344 6.6840345 9.5557344 6.9717083 9.5273438 7.2597656 L 10.804688 8 L 9.3457031 8.8457031 C 9.2698345 9.1190909 9.10855 9.3295527 8.9101562 9.4960938 C 9.1184791 9.6164999 9.304486 9.7632286 9.4550781 9.9375 L 11.595703 8.6953125 C 12.132129 8.386964 12.132129 7.613036 11.595703 7.3046875 L 9.6347656 6.1660156 z M 7.8789062 10.009766 A 1.0000002 1.0000002 0 0 0 7 11.001953 A 1.0000002 1.0000002 0 0 0 9 11.001953 A 1.0000002 1.0000002 0 0 0 7.8789062 10.009766 z "/>
</svg>