<svg xmlns="http://www.w3.org/2000/svg" width="16" height="16" fill="currentColor" class="bi bi-diagram-2" viewBox="0 0 16 16">
<path fill-rule="evenodd" d="M 6,12.5 A 1.5,1.5 0 0 0 7.5,14 h 1 A 1.5,1.5 0 0 0 10,12.5 v -1 A 1.5,1.5 0 0 0 8.5,10 V 9 H 11 a 0.5,0.5 0 0 0 0.5,-0.5 v -1 a 0.5,0.5 0 0 0 -1,0 V 8 h -5 V 7.5 a 0.5,0.5 0 0 0 -1,0 v 1 A 0.5,0.5 0 0 0 5,9 h 2.5 v 1 A 1.5,1.5 0 0 0 6,11.5 Z M 8.5,11 A 0.5,0.5 0 0 1 9,11.5 v 1 A 0.5,0.5 0 0 1 8.5,13 h -1 A 0.5,0.5 0 0 1 7,12.5 v -1 A 0.5,0.5 0 0 1 7.5,11 Z M 3,4.5 A 1.5,1.5 0 0 0 4.5,6 h 1 A 1.5,1.5 0 0 0 7,4.5 v -1 A 1.5,1.5 0 0 0 5.5,2 h -1 A 1.5,1.5 0 0 0 3,3.5 Z M 4.5,5 A 0.5,0.5 0 0 1 4,4.5 v -1 A 0.5,0.5 0 0 1 4.5,3 h 1 A 0.5,0.5 0 0 1 6,3.5 v 1 A 0.5,0.5 0 0 1 5.5,5 Z M 9,4.5 A 1.5,1.5 0 0 0 10.5,6 h 1 A 1.5,1.5 0 0 0 13,4.5 v -1 A 1.5,1.5 0 0 0 11.5,2 h -1 A 1.5,1.5 0 0 0 9,3.5 Z M 10.5,5 A 0.5,0.5 0 0 1 10,4.5 v -1 A 0.5,0.5 0 0 1 10.5,3 h 1 A 0.5,0.5 0 0 1 12,3.5 v 1 A 0.5,0.5 0 0 1 11.5,5 Z"/>
</svg>